<?xml version="1.0" encoding="UTF-8"?>
<svg width="227px" height="273px" viewBox="0 0 227 273" version="1.1" xmlns="http://www.w3.org/2000/svg" xmlns:xlink="http://www.w3.org/1999/xlink">
    <title>logotype</title>
    <g id="Page-1" stroke="none" stroke-width="1" fill="none" fill-rule="evenodd">
        <g id="PreLauder" transform="translate(-81.000000, -217.000000)" fill="#000000">
            <path d="M145.5,361 C181.122366,361 210,389.877634 210,425.5 C210,461.122366 181.122366,490 145.5,490 C109.877634,490 81,461.122366 81,425.5 C81,389.877634 109.877634,361 145.5,361 Z M243.5,217 C279.122366,217 308,245.877634 308,281.5 C308,317.122366 279.122366,346 243.5,346 C207.877634,346 179,317.122366 179,281.5 C179,245.877634 207.877634,217 243.5,217 Z M161,282 L228,282 C236.284271,282 243,288.715729 243,297 L243,410 C243,418.284271 236.284271,425 228,425 L161,425 C152.715729,425 146,418.284271 146,410 L146,297 C146,288.715729 152.715729,282 161,282 Z" id="logotype"></path>
        </g>
    </g>
</svg>